<?xml version="1.0" encoding="UTF-8"?>
<svg width="21px" height="21px" viewBox="0 0 21 21" version="1.1" xmlns="http://www.w3.org/2000/svg" xmlns:xlink="http://www.w3.org/1999/xlink">
    <title>sign_white</title>
    <g id="OpenSource-React-boilerplate" stroke="none" stroke-width="1" fill="none" fill-rule="evenodd">
        <g id="Desktop-HD" transform="translate(-33.000000, -22.000000)" fill="#FFFFFE">
            <path d="M44.9416595,23 C50.9217805,23 54,27.5784996 54,33 C54,38.4601701 50.9217805,43 44.9416595,43 L37,43 L37,28.8391338 L38.9762316,28.8391338 C39.0643907,28.8391338 39.1452031,28.8236659 39.2260156,28.800464 L41.3638721,30.5560712 L41.3638721,36.5034803 C41.3638721,36.7587007 41.5622299,36.9675174 41.8046672,36.9675174 L47.7847882,36.9675174 C48.0272256,36.9675174 48.2255834,36.7587007 48.2255834,36.5034803 L48.2255834,30.2389791 C48.2255834,29.9837587 48.0272256,29.774942 47.7847882,29.774942 L42.1793431,29.774942 L39.9312878,27.9342614 C39.9312878,27.9033256 39.9386344,27.8646558 39.9386344,27.83372 L39.9386344,23 L44.9416595,23 Z M38.6131479,28 L33.3868521,28 C33.1744627,28 33,27.8244275 33,27.6183206 L33,22.3816794 C33,22.1679389 33.1744627,22 33.3868521,22 L38.6131479,22 C38.8255373,22 39,22.1755725 39,22.3816794 L39,27.6183206 C38.9924147,27.8244275 38.8255373,28 38.6131479,28 L38.6131479,28 Z" id="sign_white"></path>
        </g>
    </g>
</svg>