<?xml version="1.0" encoding="UTF-8"?>
<svg width="29px" height="29px" viewBox="0 0 29 29" version="1.1" xmlns="http://www.w3.org/2000/svg" xmlns:xlink="http://www.w3.org/1999/xlink">
    <title>sign_white</title>
    <g id="OpenSource-React-boilerplate" stroke="none" stroke-width="1" fill="none" fill-rule="evenodd" opacity="0.5">
        <g id="Desktop-HD" transform="translate(-33.000000, -22.000000)" fill="#FFFFFE">
            <path d="M49.2117545,24 C57.6542783,24 62,30.1809745 62,37.5 C62,44.8712297 57.6542783,51 49.2117545,51 L38,51 L38,31.8828306 L40.7899741,31.8828306 C40.9144339,31.8828306 41.028522,31.861949 41.1426102,31.8306265 L44.1607606,34.2006961 L44.1607606,42.2296984 C44.1607606,42.5742459 44.4407952,42.8561485 44.7830596,42.8561485 L53.2255834,42.8561485 C53.5678479,42.8561485 53.8478825,42.5742459 53.8478825,42.2296984 L53.8478825,33.7726218 C53.8478825,33.4280742 53.5678479,33.1461717 53.2255834,33.1461717 L45.3120138,33.1461717 L42.1382887,30.6612529 C42.1382887,30.6194896 42.1486603,30.5672854 42.1486603,30.525522 L42.1486603,24 L49.2117545,24 Z M40.4841972,30 L33.5158028,30 C33.2326169,30 33,29.7659033 33,29.4910941 L33,22.5089059 C33,22.2239186 33.2326169,22 33.5158028,22 L40.4841972,22 C40.7673831,22 41,22.2340967 41,22.5089059 L41,29.4910941 C40.9898862,29.7659033 40.7673831,30 40.4841972,30 L40.4841972,30 Z" id="sign_white"></path>
        </g>
    </g>
</svg>