<?xml version="1.0" encoding="UTF-8"?>
<svg width="21px" height="18px" viewBox="0 0 21 18" version="1.1" xmlns="http://www.w3.org/2000/svg" xmlns:xlink="http://www.w3.org/1999/xlink">
    <title>Heart_font_awesome</title>
    <g id="OpenSource-React-boilerplate" stroke="none" stroke-width="1" fill="none" fill-rule="evenodd" opacity="0.5">
        <g id="Desktop-HD" transform="translate(-78.000000, -28.000000)" fill="#B94D4D" fill-rule="nonzero">
            <g id="Heart_font_awesome" transform="translate(78.000000, 28.000000)">
                <g id="Group" transform="translate(10.500000, 9.000000) scale(-1, 1) rotate(-180.000000) translate(-10.500000, -9.000000) translate(0.000000, -0.000000)">
                    <path d="M10.5,-3.06341778e-15 C10.296875,-3.06341778e-15 10.125,0.0703125 9.984375,0.2109375 L2.671875,7.265625 C2.59375,7.328125 2.48632812,7.4296875 2.34960937,7.5703125 C2.21289062,7.7109375 1.99609375,7.96679687 1.69921875,8.33789062 C1.40234375,8.70898437 1.13671875,9.08984375 0.90234375,9.48046875 C0.66796875,9.87109375 0.458984375,10.34375 0.275390625,10.8984375 C0.091796875,11.453125 -1.53039974e-15,11.9921875 -1.53039974e-15,12.515625 C-1.53039974e-15,14.234375 0.49609375,15.578125 1.48828125,16.546875 C2.48046875,17.515625 3.8515625,18 5.6015625,18 C6.0859375,18 6.58007812,17.9160156 7.08398437,17.7480469 C7.58789062,17.5800781 8.05664062,17.3535156 8.49023437,17.0683594 C8.92382812,16.7832031 9.296875,16.515625 9.609375,16.265625 C9.921875,16.015625 10.21875,15.75 10.5,15.46875 C10.78125,15.75 11.078125,16.015625 11.390625,16.265625 C11.703125,16.515625 12.0761719,16.7832031 12.5097656,17.0683594 C12.9433594,17.3535156 13.4121094,17.5800781 13.9160156,17.7480469 C14.4199219,17.9160156 14.9140625,18 15.3984375,18 C17.1484375,18 18.5195312,17.515625 19.5117187,16.546875 C20.5039062,15.578125 21,14.234375 21,12.515625 C21,10.7890625 20.1054687,9.03125 18.3164062,7.2421875 L11.015625,0.2109375 C10.875,0.0703125 10.703125,-3.06341778e-15 10.5,-3.06341778e-15" id="Path"></path>
                </g>
            </g>
        </g>
    </g>
</svg>