<?xml version="1.0" encoding="UTF-8"?>
<svg width="33px" height="29px" viewBox="0 0 33 29" version="1.1" xmlns="http://www.w3.org/2000/svg" xmlns:xlink="http://www.w3.org/1999/xlink">
    <title>react</title>
    <g id="OpenSource-React-boilerplate" stroke="none" stroke-width="1" fill="none" fill-rule="evenodd" opacity="0.5">
        <g id="Desktop-HD" transform="translate(-112.000000, -22.000000)" fill="#FFFFFF" fill-rule="nonzero">
            <g id="react" transform="translate(112.000000, 22.000000)">
                <path d="M24.7174317,0.36907303 C26.5129229,1.39153283 27.0386889,4.49757185 26.2345589,8.35314544 C26.1843127,8.59266993 26.1295847,8.83125585 26.0704031,9.06878075 C26.4272715,9.17015906 26.7814971,9.28040274 27.1327427,9.39940686 C30.6968525,10.6112698 33,12.5096292 33,14.4724693 C33,16.5195527 30.5386845,18.5210524 26.7555055,19.759025 C26.5555683,19.8245155 26.3506656,19.8874095 26.1418196,19.9482839 C26.2163032,20.2442895 26.2827542,20.5349577 26.3397122,20.8195674 C27.0865921,24.5457467 26.5114624,27.6083658 24.7413833,28.6204395 C23.0275319,29.6003449 20.257621,28.6377497 17.452951,26.2539816 C17.1480962,25.994248 16.8506308,25.7261713 16.5609012,25.450064 C16.3308786,25.6697601 16.101148,25.8793586 15.8722937,26.0769842 C12.9767831,28.5768753 10.0032838,29.6140488 8.23159819,28.6050045 C6.51628636,27.6276956 5.97723008,24.7768388 6.6674441,21.1864008 C6.74286294,20.7961971 6.82930731,20.4081514 6.92667599,20.0227181 C6.62695736,19.9382144 6.32941768,19.8463453 6.03433412,19.7471963 C2.39515658,18.5187443 0,16.4925775 0,14.4724693 C0,12.5166975 2.23129282,10.6310324 5.72500841,9.42796881 C6.11553577,9.29352573 6.52373471,9.16716077 6.94639222,9.04858544 C6.85584848,8.69082275 6.77452322,8.33084534 6.70249518,7.96900175 C5.9785445,4.31509277 6.48795341,1.39499489 8.20779267,0.411627438 C10.0013852,-0.613861664 12.9884668,0.487359858 15.9685381,3.10092176 C16.1539066,3.26384726 16.3362034,3.43015053 16.5153348,3.59974597 C16.7828258,3.34469251 17.0567984,3.09635518 17.3369904,2.85497171 C20.1805086,0.410906176 22.9959859,-0.611553628 24.7174317,0.36907303 Z M24.8322364,20.3603004 C23.4707301,20.6708763 21.9694217,20.8984596 20.3802461,21.0375942 C19.4768425,22.3284297 18.5511811,23.4908995 17.6249379,24.4908304 C17.9016325,24.7535922 18.1775997,25.0019955 18.4515303,25.2346044 C20.8405309,27.2637575 23.0559791,28.0330897 24.0919109,27.4412295 C24.5786724,27.163104 24.9723294,26.4687235 25.1681396,25.4271528 C25.386062,24.2679854 25.3390734,22.7851758 25.010153,21.1451399 C24.9588001,20.8891266 24.8991551,20.6273698 24.8322364,20.3603004 Z M8.41196703,20.4223294 C8.32188148,20.7791301 8.24183912,21.1383282 8.17193227,21.4995094 C7.5840653,24.5557311 8.01496407,26.8344363 9.05191427,27.4245735 C9.53911212,27.7018375 10.3451925,27.6917865 11.3572664,27.3389964 C12.4836841,26.9462895 13.7616874,26.1657577 15.0370721,25.0653168 C15.2505306,24.8806939 15.4593514,24.6909118 15.6633446,24.4961431 C14.7034965,23.4794127 13.7510677,22.3183787 12.8416996,21.0552552 C11.2487416,20.9277511 9.75834387,20.7162494 8.41196703,20.4223294 Z M18.5706749,21.1559088 C17.9187986,21.1846259 17.2564481,21.1994153 16.5863874,21.1994153 C15.9342202,21.1994153 15.2925273,21.1870669 14.6631998,21.1626573 C15.3115846,22.0059362 15.9753898,22.7899141 16.6409408,23.4987968 C17.284234,22.799678 17.9305821,22.0145513 18.5706749,21.1559088 Z M16.5865329,9.36063029 C15.5732952,9.36063029 14.5709682,9.39882409 13.5933721,9.47176563 C13.1709649,10.082708 12.7663042,10.7053614 12.3798751,11.3389637 L11.9995412,11.9761875 C11.5004236,12.830141 11.0340385,13.7026102 10.6013751,14.5914575 C11.0351417,15.4800386 11.5029405,16.3520407 12.00376,17.2055789 C12.5069315,18.0636697 13.0428104,18.9026665 13.6102473,19.7207697 C14.5684951,19.7820808 15.5635484,19.813526 16.5863874,19.813526 C17.6134453,19.813526 18.6213004,19.7780604 19.5965689,19.7092828 C20.1496608,18.8892704 20.6755906,18.0517231 21.1735246,17.1979688 C21.6759154,16.339402 22.1470216,15.4634526 22.5860928,14.5717863 C22.1424581,13.689113 21.6698488,12.8209176 21.1690148,11.9685775 C20.6709944,11.118465 20.1427347,10.2859635 19.5852218,9.47262714 C18.6079166,9.39911126 17.6042803,9.36063029 16.5865329,9.36063029 Z M9.85653991,16.2211553 C9.43887942,17.1989739 9.08130035,18.1604238 8.79107649,19.0854029 C9.72866684,19.2868537 10.7439412,19.4475261 11.8204607,19.5661279 C11.4630926,19.0189123 11.1189935,18.4633649 10.7884567,17.8999594 C10.4645275,17.3476457 10.1538026,16.7878896 9.85653991,16.2211553 Z M23.3432934,16.171331 C23.0384871,16.7512436 22.7206411,17.3243882 22.3899917,17.8903391 C22.0647289,18.447206 21.7282742,18.997631 21.3808273,19.5412876 C22.4650571,19.4129219 23.4940062,19.2400447 24.4471624,19.0253841 C24.1530107,18.1160558 23.7826298,17.159775 23.3432934,16.171331 Z M7.44717274,10.494383 C7.06665848,10.6005792 6.68937559,10.7177474 6.31580887,10.8457372 C3.33952322,11.8699341 1.55497382,13.3768661 1.55497382,14.5581457 C1.55497382,15.1133916 1.96666982,15.7975775 2.78191518,16.4867888 C3.6892466,17.2535365 5.01292924,17.956245 6.61577959,18.4969887 C6.8841452,18.5871055 7.15471458,18.6706976 7.42724258,18.7476894 C7.84242999,17.4116244 8.38970926,16.0089356 9.04929571,14.5918883 C8.39814685,13.1956609 7.85857779,11.8149408 7.44717274,10.494383 Z M25.7433502,10.5147722 C25.3389279,11.8063256 24.7992134,13.1708206 24.1435548,14.5650378 C24.8304907,15.9929976 25.3920265,17.3752972 25.8080868,18.6751786 C25.9960413,18.6201853 26.1805044,18.5634689 26.3601668,18.5047423 C29.6138744,17.4406287 31.617801,15.8123668 31.617801,14.5581457 C31.617801,13.3807429 29.762405,11.8525602 26.7205099,10.8191739 C26.4059916,10.7122025 26.0795443,10.6109746 25.7433502,10.5147722 Z M16.775,11.490566 C18.4457439,11.490566 19.8,12.8379692 19.8,14.4999254 C19.8,16.1620308 18.4457439,17.509434 16.775,17.509434 C15.104406,17.509434 13.75,16.1620308 13.75,14.4999254 C13.75,12.8379692 15.104406,11.490566 16.775,11.490566 Z M21.3847552,9.65167852 C21.7297088,10.1853707 22.0629737,10.7263357 22.3843182,11.274197 C22.71087,11.8306885 23.02613,12.393561 23.3299097,12.9624777 C23.745679,12.0018893 24.0987483,11.064849 24.3819893,10.1687306 C23.4384345,9.95608021 22.4336344,9.78234151 21.3847552,9.65167852 Z M11.7904928,9.64909397 C10.7484509,9.77760318 9.74830605,9.94689073 8.81042475,10.1540849 C9.09613886,11.0629824 9.44600772,12.0041867 9.85493968,12.9614726 C10.1509545,12.3951581 10.4603199,11.8357394 10.7827832,11.2836736 C11.1056775,10.7311038 11.4416733,10.1860937 11.7904928,9.64909397 Z M18.3419872,4.0399184 C18.0843204,4.26181445 17.8322789,4.48999467 17.5860959,4.72424787 C18.5255774,5.7233172 19.4614221,6.87760269 20.3646802,8.14704391 C21.9151593,8.29062961 23.3961011,8.5218026 24.7597895,8.83237848 C24.8129869,8.61827849 24.8622626,8.40324777 24.9075927,8.18739149 C25.5991838,4.87386417 25.1710491,2.34718652 24.0703806,1.7205785 C23.0369218,1.13230786 20.7688114,1.95534113 18.3419872,4.0399184 Z M9.03009293,1.7617876 C7.99765248,2.35163767 7.58741124,4.70227925 8.20524618,7.81851982 C8.27203292,8.15341134 8.34736472,8.48673174 8.43116982,8.81801991 C9.79165779,8.5137618 11.2715812,8.28660922 12.8175506,8.1451773 C13.719063,6.88937672 14.6627633,5.73710143 15.6176653,4.7249658 C15.4528414,4.56946248 15.2883085,4.41912824 15.124503,4.27554254 C12.5615135,2.02943135 10.1298886,1.13345655 9.03009293,1.7617876 Z M16.6020988,5.71541999 C15.9442581,6.41597465 15.2900542,7.18817857 14.6514163,8.01939622 C15.9457386,7.95960396 17.2421931,7.95989145 18.5364881,8.02025773 C17.898432,7.18128646 17.2497562,6.40793385 16.6020988,5.71541999 Z" id="Combined-Shape"></path>
            </g>
        </g>
    </g>
</svg>